<?xml version="1.0" standalone="no"?>
<!DOCTYPE svg PUBLIC "-//W3C//DTD SVG 20010904//EN"
 "http://www.w3.org/TR/2001/REC-SVG-20010904/DTD/svg10.dtd">
<svg version="1.0" xmlns="http://www.w3.org/2000/svg"
 width="256.000000pt" height="256.000000pt" viewBox="0 0 256.000000 256.000000"
 preserveAspectRatio="xMidYMid meet">
<metadata>
Created by potrace 1.11, written by Peter Selinger 2001-2013
</metadata>
<g transform="translate(0.000000,256.000000) scale(0.100000,-0.100000)"
fill="#000000" stroke="none">
<path d="M1115 2543 c-24 -3 -136 -30 -200 -47 -18 -5 -49 -18 -132 -56 -165
-76 -307 -195 -430 -358 -75 -99 -164 -292 -187 -402 -3 -14 -7 -36 -11 -50
-31 -141 -23 -405 16 -507 6 -16 10 -30 10 -33 0 -10 11 -56 19 -75 23 -58 35
-91 32 -97 -1 -5 4 -8 10 -9 7 0 4 -4 -7 -9 -19 -8 -19 -9 3 -9 12 -1 22 -4
23 -8 3 -29 9 -47 19 -53 8 -5 7 -9 -4 -13 -14 -6 -21 4 -17 26 2 12 -6 8 -20
-10 -8 -9 -9 -14 -3 -10 7 4 15 0 18 -9 10 -25 8 -25 -22 -8 l-27 16 25 -20
c20 -17 23 -23 13 -33 -18 -18 -16 -31 4 -28 32 3 39 -1 39 -21 0 -11 -5 -18
-11 -16 -5 2 -9 9 -7 15 1 6 -2 11 -8 11 -5 0 -10 -4 -10 -9 0 -5 -6 -11 -12
-14 -7 -2 -5 -3 5 -1 13 2 16 -2 12 -17 -4 -10 -2 -20 4 -20 26 -3 30 -4 37
-11 4 -5 2 -9 -4 -9 -7 -1 -18 -2 -24 -3 -7 -1 -18 5 -24 13 -9 11 -12 12 -19
1 -6 -9 -4 -11 5 -5 10 6 12 3 8 -13 -4 -12 -1 -25 4 -29 6 -3 8 -1 5 4 -8 13
8 19 50 18 19 -1 34 4 37 12 4 11 1 11 -17 3 -21 -11 -21 -11 -3 4 14 12 16
16 5 16 -12 0 -12 2 1 10 13 9 13 10 0 10 -9 1 -6 6 9 14 14 8 19 16 13 20 -6
3 -12 0 -15 -6 -2 -7 -8 -9 -13 -5 -5 4 -2 13 6 18 12 9 12 10 -3 5 -12 -4
-16 -2 -11 6 4 7 3 8 -4 4 -8 -5 -10 -2 -6 8 7 18 -21 23 -31 6 -3 -5 -10 -10
-16 -10 -5 0 -4 9 3 19 6 11 20 18 30 16 10 -2 16 0 13 6 -4 5 -11 7 -16 4 -5
-4 -9 -1 -9 4 0 23 30 9 36 -16 4 -15 18 -36 31 -46 22 -18 23 -21 8 -43 -15
-23 -14 -24 6 -21 16 1 25 -6 36 -31 7 -19 9 -31 3 -27 -5 3 -10 13 -10 21 0
8 -4 12 -10 9 -6 -3 -7 1 -4 9 3 9 2 16 -4 16 -16 0 -23 -30 -8 -36 20 -8 28
-32 16 -54 -6 -11 -6 -21 -1 -25 5 -3 12 3 15 12 4 10 16 29 27 43 20 24 20
23 -1 -12 -12 -21 -19 -38 -15 -38 4 0 -3 -8 -15 -18 -21 -17 -21 -19 -4 -32
16 -13 17 -13 11 2 -6 18 24 44 37 31 13 -13 5 -32 -16 -39 -21 -6 -21 -7 -2
-17 10 -6 26 -12 34 -14 8 -1 16 -7 19 -14 2 -6 12 -20 22 -30 11 -11 16 -19
12 -20 -5 0 -16 -2 -25 -4 -10 -2 -18 1 -18 7 0 6 -7 7 -16 4 -10 -4 -13 -2
-8 6 5 7 3 8 -6 3 -9 -6 -11 -4 -5 5 6 9 4 11 -5 5 -9 -6 -11 -4 -5 5 6 9 4
11 -4 6 -9 -6 -9 -12 2 -24 15 -17 12 -46 -3 -37 -11 7 -7 -22 5 -32 4 -4 5
-3 1 4 -8 14 10 26 44 28 14 1 36 7 49 14 17 10 26 10 35 1 8 -8 6 -9 -9 -4
-16 6 -18 5 -7 -7 6 -7 12 -17 12 -23 0 -5 -6 -1 -14 9 -11 15 -17 17 -28 7
-8 -6 -17 -9 -21 -6 -3 3 -11 -4 -17 -16 -9 -16 -9 -20 -1 -15 7 4 19 1 27 -6
13 -10 12 -14 -3 -32 -18 -19 -17 -20 5 -6 12 8 20 19 18 26 -7 18 23 24 47
10 12 -8 32 -13 45 -12 18 2 20 0 11 -12 -7 -7 -9 -17 -5 -20 4 -4 11 -1 16 7
8 12 10 12 16 -3 3 -9 10 -14 15 -11 5 3 9 1 9 -5 0 -5 -9 -9 -19 -8 -11 0
-17 6 -13 12 3 5 -1 4 -10 -3 -13 -10 -17 -10 -22 4 -3 9 -4 20 0 25 3 5 0 9
-5 9 -6 0 -11 -7 -11 -16 0 -8 -5 -12 -10 -9 -6 4 -7 11 -4 17 4 6 2 8 -3 5
-6 -4 -13 0 -17 8 -3 8 -11 15 -18 15 -10 0 -9 -3 1 -9 8 -5 11 -16 8 -24 -4
-12 -2 -14 10 -10 13 5 14 3 3 -16 -6 -13 -9 -25 -7 -28 3 -2 8 5 12 16 6 21
6 21 34 2 21 -15 31 -17 39 -9 16 16 15 -4 -1 -22 -6 -7 -1 -6 13 3 29 20 44
22 34 5 -6 -10 -5 -10 8 0 12 10 18 9 28 -3 7 -9 8 -15 2 -15 -6 0 -13 5 -15
10 -3 6 -4 5 -3 -2 4 -19 49 -39 60 -28 16 16 30 11 16 -5 -9 -10 -9 -15 -1
-15 6 0 11 5 11 11 0 5 5 7 10 4 6 -4 7 -12 3 -18 -16 -25 -12 -37 8 -27 24
13 25 22 2 13 -16 -6 -16 -5 -4 11 14 17 16 17 27 1 7 -9 21 -15 31 -12 17 4
17 5 0 6 -11 1 -15 6 -11 13 4 6 3 8 -4 4 -6 -3 -13 -2 -17 4 -4 6 -11 7 -17
4 -7 -5 -8 -2 -3 6 5 9 4 11 -3 6 -7 -4 -12 -3 -12 2 0 15 32 24 44 12 8 -8 5
-9 -9 -4 -18 7 -18 6 -6 -9 7 -9 17 -14 22 -11 5 3 16 -2 25 -10 8 -9 20 -16
27 -16 6 0 2 7 -9 15 -18 14 -17 14 8 4 21 -9 25 -15 17 -25 -8 -9 -5 -11 10
-7 12 3 28 0 36 -7 13 -11 19 -7 16 12 0 3 7 5 17 3 9 -1 20 3 24 9 4 6 6 -3
4 -19 -2 -24 1 -31 15 -31 12 0 15 4 8 12 -10 12 -2 44 11 44 4 0 7 -10 6 -22
-1 -20 4 -23 29 -21 16 2 35 9 41 17 9 12 12 12 22 -4 10 -16 9 -18 -8 -15
-11 2 -20 0 -20 -6 0 -10 41 -6 60 6 6 4 18 1 27 -7 14 -11 16 -11 10 4 -4 13
-2 15 11 11 15 -6 16 -5 2 13 -14 17 -13 18 1 7 9 -7 18 -11 21 -8 2 3 5 -2 5
-10 0 -8 -4 -12 -8 -9 -13 8 -22 -17 -10 -29 9 -9 11 -8 5 6 -3 10 -3 17 2 16
19 -3 35 1 30 9 -3 5 1 9 9 9 8 0 12 -4 9 -9 -6 -10 -6 -10 34 2 29 8 32 7 22
-5 -7 -8 -9 -15 -4 -15 13 1 45 26 39 31 -2 3 5 5 15 6 11 1 20 -3 20 -8 0 -6
-4 -8 -9 -5 -5 3 -14 0 -20 -8 -10 -12 -6 -14 23 -11 20 2 38 -1 42 -6 4 -6
11 -5 20 2 20 17 30 3 13 -18 -12 -16 -12 -17 2 -6 9 7 19 10 23 6 4 -4 4 0 1
8 -5 12 1 15 29 13 21 -2 41 3 50 11 7 8 16 11 20 8 3 -4 6 -1 6 6 0 7 -7 11
-14 8 -10 -4 -13 -1 -9 8 3 8 9 13 13 10 5 -3 12 0 17 7 4 7 16 14 25 14 10 1
15 -2 12 -7 -3 -5 -11 -9 -17 -9 -7 0 -13 -9 -14 -20 -1 -11 2 -20 8 -20 5 0
9 7 9 16 0 13 3 14 13 5 8 -6 17 -8 20 -4 4 3 7 2 7 -4 0 -6 7 -13 14 -16 10
-4 13 -1 9 9 -5 13 -17 18 -35 15 -5 0 -8 4 -8 10 0 7 9 9 24 5 21 -5 24 -3
21 20 -3 34 14 16 21 -22 6 -32 14 -45 14 -23 0 11 11 15 39 13 32 -1 38 2 33
14 -3 9 -1 13 5 9 6 -4 22 2 36 13 24 19 26 20 37 3 8 -13 10 -14 9 -3 -3 31
2 37 26 35 14 -2 25 1 25 6 0 5 5 9 11 9 6 0 9 -6 6 -13 -3 -8 1 -14 8 -14 10
0 11 5 5 17 -6 11 0 29 21 59 16 24 29 39 29 32 0 -7 5 -9 10 -6 7 4 6 13 -1
26 -17 33 -5 31 13 -2 10 -17 13 -27 8 -24 -6 4 -13 -1 -16 -10 -6 -14 -9 -14
-16 -3 -7 10 -8 8 -4 -5 4 -12 2 -16 -6 -11 -7 5 -8 3 -3 -6 6 -9 4 -11 -5 -5
-9 6 -11 4 -5 -5 5 -8 4 -11 -1 -7 -6 3 -11 -3 -11 -14 -1 -10 3 -19 8 -19 6
0 7 5 3 12 -5 8 -2 9 10 5 10 -4 15 -3 11 3 -3 6 -3 15 1 21 4 8 12 3 21 -12
l14 -24 -7 24 c-5 18 -3 22 7 16 11 -6 12 -5 2 6 -22 23 -14 30 14 12 15 -10
24 -12 19 -5 -8 13 27 66 37 55 4 -3 12 6 18 20 7 15 16 24 21 21 5 -3 7 0 6
7 -2 6 3 14 11 17 8 3 11 0 7 -7 -5 -7 -1 -9 11 -5 16 5 16 4 -1 -10 -11 -9
-15 -16 -9 -16 6 0 16 6 22 14 10 12 8 17 -9 26 -17 9 -19 14 -9 26 7 8 18 13
25 10 7 -3 16 0 20 6 4 7 3 8 -4 4 -7 -4 -12 -3 -12 2 0 5 9 12 20 15 22 6 18
37 -4 37 -22 0 -13 28 12 39 23 11 24 12 7 38 -16 24 -16 26 0 20 9 -4 19 -7
21 -7 3 0 2 -6 -2 -12 -6 -10 -5 -10 8 0 8 7 14 22 13 35 -3 31 -3 31 -20 17
-23 -19 -18 1 6 27 18 18 20 25 9 38 -9 11 -10 18 -1 28 6 8 8 17 4 20 -3 4 2
7 13 8 12 0 14 3 6 6 -7 3 -24 -5 -38 -18 -13 -12 -24 -17 -24 -10 0 7 -5 9
-11 5 -7 -4 0 -14 19 -26 19 -12 29 -25 25 -34 -3 -7 -9 -11 -14 -8 -5 3 -7
10 -4 15 3 5 -1 6 -9 3 -8 -3 -13 -16 -12 -29 2 -14 -1 -22 -8 -19 -6 2 -17
-5 -24 -17 -8 -12 -9 -18 -4 -15 5 3 15 -1 22 -9 10 -12 10 -15 -1 -15 -8 -1
-3 -7 11 -16 l25 -15 -25 6 c-20 5 -22 4 -10 -5 13 -10 13 -11 -2 -6 -10 3
-20 0 -24 -6 -4 -6 -3 -8 3 -5 5 3 10 0 10 -8 0 -8 -4 -12 -8 -10 -3 3 -6 -11
-4 -29 1 -28 -2 -34 -15 -31 -11 2 -17 -3 -17 -13 0 -41 -2 -44 -19 -28 -20
20 -35 21 -28 1 4 -8 10 -13 14 -10 5 3 12 0 16 -6 5 -8 3 -9 -6 -4 -9 6 -11
4 -5 -5 6 -9 4 -11 -5 -5 -9 5 -11 4 -6 -3 4 -7 2 -20 -4 -29 -10 -16 -11 -16
-7 4 3 12 -1 27 -9 34 -11 9 -13 5 -10 -18 3 -21 0 -30 -10 -30 -8 0 -14 4
-14 9 0 5 -5 6 -12 2 -7 -4 -8 -3 -4 4 4 6 13 9 21 5 24 -9 17 13 -7 26 -13 6
-15 9 -6 7 10 -3 20 -1 23 4 4 6 1 10 -6 10 -7 0 -9 3 -6 6 4 4 13 1 22 -6 21
-18 19 -3 -6 31 -15 22 -17 27 -5 23 9 -3 16 -12 16 -20 0 -8 6 -11 15 -8 13
5 13 9 3 23 -10 13 -10 14 2 4 22 -20 35 -15 16 6 -10 10 -25 17 -35 14 -11
-3 -21 2 -25 13 -5 14 -4 15 8 5 8 -7 20 -10 27 -6 6 4 15 1 20 -6 4 -7 11
-10 15 -6 4 4 2 13 -4 19 -7 7 -12 16 -12 22 0 5 7 1 15 -10 15 -19 16 -19 13
1 -2 11 -7 24 -13 28 -6 5 -3 7 7 3 10 -3 22 2 27 12 8 12 10 13 11 3 0 -20
13 -5 17 19 3 18 1 19 -17 8 -11 -7 -20 -16 -20 -20 0 -5 -5 -8 -11 -8 -8 0
-8 4 -1 12 5 7 9 27 7 45 -1 25 2 30 14 25 14 -5 14 -3 2 11 -11 14 -11 18 3
23 10 4 15 13 12 20 -3 8 -2 13 2 11 4 -1 7 1 7 4 0 4 9 16 19 28 11 12 15 21
10 21 -5 1 2 10 16 21 14 12 23 22 21 23 -2 0 -1 11 3 24 4 12 11 20 15 18 4
-3 7 3 8 12 1 9 20 69 42 132 38 111 43 132 57 230 14 92 8 293 -9 380 -17 80
-32 130 -39 130 -5 0 -7 4 -4 9 11 17 -65 175 -130 273 -35 53 -95 127 -132
165 -71 72 -183 163 -201 163 -6 0 -11 4 -11 8 0 11 -159 89 -230 114 -115 39
-242 58 -382 57 -73 -1 -146 -4 -163 -6z m1185 -1777 c0 -2 -8 -10 -17 -17
-16 -13 -17 -12 -4 4 13 16 21 21 21 13z m-1995 -76 c2 -25 0 -28 -11 -19 -8
6 -14 8 -14 5 0 -4 -5 -4 -12 0 -7 5 -4 10 10 15 15 6 20 13 15 26 -3 10 -3
15 2 11 4 -4 9 -21 10 -38z m1975 -4 c0 -3 -4 -8 -10 -11 -5 -3 -10 -1 -10 4
0 6 5 11 10 11 6 0 10 -2 10 -4z m8 -34 c8 8 11 5 9 -10 -1 -16 -5 -19 -19
-11 -9 5 -21 9 -25 8 -17 -3 -24 1 -18 11 4 7 13 7 24 0 12 -6 22 -5 29 2z
m-118 -32 c0 -5 -8 -10 -17 -10 -15 0 -16 2 -3 10 19 12 20 12 20 0z m-36 -18
c2 -4 -4 -8 -14 -8 -10 0 -16 4 -14 8 3 4 9 8 14 8 5 0 11 -4 14 -8z m-1711
-27 c-3 -9 -8 -14 -10 -11 -3 3 -2 9 2 15 9 16 15 13 8 -4z m1703 -14 c0 -16
-4 -17 -18 -10 -10 5 -18 12 -18 15 0 3 4 3 9 -1 5 -3 12 -1 16 5 9 14 11 13
11 -9z m-1681 -1 c3 -5 1 -10 -4 -10 -6 0 -11 5 -11 10 0 6 2 10 4 10 3 0 8
-4 11 -10z m45 -45 c0 -2 -9 -3 -19 -2 -11 0 -18 5 -15 9 4 6 34 0 34 -7z m37
0 c0 -8 -4 -12 -9 -9 -5 3 -6 10 -3 15 9 13 12 11 12 -6z m1733 -9 c0 -2 -8
-6 -18 -8 -12 -4 -18 1 -19 13 -2 16 2 17 18 9 10 -6 19 -12 19 -14z m-1807
-13 c-7 -2 -19 -2 -25 0 -7 3 -2 5 12 5 14 0 19 -2 13 -5z m32 -2 c3 -5 2 -12
-3 -15 -5 -3 -9 1 -9 9 0 17 3 19 12 6z m1594 -15 c9 -11 9 -16 -1 -22 -7 -4
-10 -4 -6 1 4 4 3 14 -3 22 -6 7 -9 13 -6 13 2 0 10 -6 16 -14z m-1569 -10 c0
-2 -7 -7 -16 -10 -8 -3 -12 -2 -9 4 6 10 25 14 25 6z m0 -26 c0 -5 -5 -10 -11
-10 -5 0 -7 5 -4 10 3 6 8 10 11 10 2 0 4 -4 4 -10z m1550 -14 c0 -2 -8 -10
-17 -17 -16 -13 -17 -12 -4 4 13 16 21 21 21 13z m-1616 -24 c3 -5 -1 -9 -9
-9 -8 0 -12 4 -9 9 3 4 7 8 9 8 2 0 6 -4 9 -8z m123 1 c-4 -3 -1 -13 6 -22 11
-14 10 -14 -5 -2 -21 15 -23 31 -6 31 6 0 8 -3 5 -7z m1496 -8 c-3 -9 -8 -14
-10 -11 -3 3 -2 9 2 15 9 16 15 13 8 -4z m-1453 -15 c0 -5 -5 -10 -11 -10 -5
0 -7 5 -4 10 3 6 8 10 11 10 2 0 4 -4 4 -10z m-111 -26 c-9 -11 -15 -11 -25
-3 -18 15 -18 14 11 15 21 2 24 -1 14 -12z m1508 -7 c-2 -6 -10 -12 -18 -15
-11 -3 -11 -2 1 7 14 10 7 16 -13 12 -5 -1 -6 3 -2 8 7 13 37 2 32 -12z m103
15 c0 -1 -10 -13 -21 -25 -12 -12 -19 -17 -15 -10 3 6 2 14 -4 18 -19 12 -10
25 15 23 14 -1 25 -4 25 -6z m-1539 -20 c-7 -2 -18 1 -23 6 -8 8 -4 9 13 5 13
-4 18 -8 10 -11z m113 0 c2 -4 -5 -9 -17 -9 -17 -2 -19 0 -7 7 18 12 18 12 24
2z m-43 -29 c13 -16 12 -17 -3 -4 -10 7 -18 15 -18 17 0 8 8 3 21 -13z m1322
4 c-4 -6 0 -8 10 -4 14 5 15 3 5 -18 -10 -23 -20 -29 -40 -26 -5 0 -8 -3 -8
-9 0 -5 -5 -10 -11 -10 -8 0 -7 5 1 15 7 9 10 18 7 21 -3 4 -16 -9 -28 -27
-11 -19 -18 -26 -15 -16 4 12 2 17 -6 15 -7 -3 -13 -10 -13 -16 0 -15 -19 -33
-39 -36 -10 -1 -21 -7 -24 -13 -8 -12 -73 -13 -66 -1 3 5 10 6 15 3 5 -3 6 0
3 8 -3 8 6 18 21 25 14 7 24 16 20 21 -3 5 0 13 6 17 7 4 9 3 6 -2 -3 -6 2
-15 12 -21 14 -9 21 -7 34 8 9 10 24 19 32 19 10 0 13 5 9 12 -4 6 -3 8 3 5 6
-4 16 0 23 8 16 19 31 10 23 -13 -6 -15 -5 -15 10 -3 16 12 16 16 2 31 -13 14
-13 17 0 17 8 0 11 -5 8 -10z m-83 -17 c-8 -5 -19 -10 -25 -10 -5 0 -3 5 5 10
8 5 20 10 25 10 6 0 3 -5 -5 -10z m-1166 -21 c-5 -9 -54 -8 -54 0 0 4 13 7 29
6 16 0 27 -3 25 -6z m47 -27 c-7 -2 -18 1 -23 6 -8 8 -4 9 13 5 13 -4 18 -8
10 -11z m-17 -15 c4 4 4 0 1 -9 -9 -23 -30 -13 -32 15 -2 20 -1 21 11 5 7 -10
16 -15 20 -11z m984 -2 c-3 -3 -9 2 -12 12 -6 14 -5 15 5 6 7 -7 10 -15 7 -18z
m-800 -46 c-3 -8 -7 -3 -11 10 -4 17 -3 21 5 13 5 -5 8 -16 6 -23z m762 21 c0
-5 -5 -10 -11 -10 -5 0 -7 5 -4 10 3 6 8 10 11 10 2 0 4 -4 4 -10z m-196 -8
c3 -5 -1 -9 -9 -9 -8 0 -12 4 -9 9 3 4 7 8 9 8 2 0 6 -4 9 -8z m-540 -28 c3
-8 2 -12 -4 -9 -6 3 -10 10 -10 16 0 14 7 11 14 -7z m153 1 c4 -4 3 -5 -4 -2
-6 4 -13 2 -15 -5 -2 -6 -12 -12 -21 -14 -9 -1 -15 2 -11 7 3 5 10 6 16 3 7
-5 9 -2 5 8 -6 17 16 19 30 3z m187 7 c3 -5 -1 -9 -9 -9 -8 0 -12 4 -9 9 3 4
7 8 9 8 2 0 6 -4 9 -8z m40 0 c3 -5 -1 -9 -9 -9 -8 0 -12 4 -9 9 3 4 7 8 9 8
2 0 6 -4 9 -8z m242 -14 c-3 -20 -9 -23 -52 -23 -27 0 -54 -3 -61 -8 -6 -4
-14 -3 -18 3 -4 6 -10 8 -14 6 -4 -3 -8 1 -8 7 0 7 9 14 19 14 10 1 18 -1 18
-5 0 -4 9 -8 20 -8 11 0 20 4 20 9 0 5 6 7 14 4 7 -3 19 0 26 6 10 9 11 9 6 0
-3 -6 -2 -14 3 -17 5 -4 12 3 16 14 9 27 16 25 11 -2z m-396 -4 c0 -8 -19 -13
-24 -6 -3 5 1 9 9 9 8 0 15 -2 15 -3z"/>
<path d="M1781 221 c-19 -15 -21 -19 -8 -24 9 -3 21 1 27 8 7 8 17 12 22 8 6
-3 9 0 6 7 -7 21 -21 21 -47 1z m29 5 c0 -2 -8 -10 -17 -17 -16 -13 -17 -12
-4 4 13 16 21 21 21 13z"/>
<path d="M190 921 c0 -6 4 -13 10 -16 6 -3 7 1 4 9 -7 18 -14 21 -14 7z"/>
<path d="M230 870 c-13 -8 -12 -10 3 -10 9 0 17 5 17 10 0 12 -1 12 -20 0z"/>
<path d="M206 838 c3 -5 10 -6 15 -3 13 9 11 12 -6 12 -8 0 -12 -4 -9 -9z"/>
<path d="M193 780 c0 -23 3 -28 9 -16 5 9 5 23 0 32 -6 12 -9 7 -9 -16z"/>
<path d="M2269 805 c0 0 -2 -8 -4 -18 -3 -18 -3 -18 18 0 12 10 24 19 26 20 2
1 -36 0 -40 -2z"/>
<path d="M2355 770 c10 -11 20 -20 23 -20 3 0 -3 9 -13 20 -10 11 -20 20 -23
20 -3 0 3 -9 13 -20z"/>
<path d="M2310 738 c0 -4 4 -8 9 -8 6 0 12 4 15 8 3 5 -1 9 -9 9 -8 0 -15 -4
-15 -9z"/>
<path d="M2353 735 c0 -8 4 -12 9 -9 5 3 6 10 3 15 -9 13 -12 11 -12 -6z"/>
<path d="M2231 722 c-6 -11 -7 -23 -3 -27 4 -5 -2 -5 -13 -1 -16 6 -17 5 -8
-5 10 -10 9 -17 -4 -31 -14 -15 -14 -21 -3 -31 9 -8 11 -8 6 0 -3 6 6 25 20
42 15 18 21 31 13 31 -8 0 -5 5 6 13 12 9 14 16 7 21 -6 3 -16 -2 -21 -12z"/>
<path d="M156 722 c-3 -5 1 -9 9 -9 8 0 12 4 9 9 -3 4 -7 8 -9 8 -2 0 -6 -4
-9 -8z"/>
<path d="M2317 693 c-10 -9 -9 -23 1 -23 5 0 9 7 9 15 0 17 -1 18 -10 8z"/>
<path d="M195 680 c-3 -5 -1 -10 4 -10 6 0 11 5 11 10 0 6 -2 10 -4 10 -3 0
-8 -4 -11 -10z"/>
<path d="M195 651 c-3 -5 -2 -12 3 -15 5 -3 9 1 9 9 0 17 -3 19 -12 6z"/>
<path d="M2333 639 c-2 -23 3 -25 10 -4 4 8 3 16 -1 19 -4 3 -9 -4 -9 -15z"/>
<path d="M310 619 c0 -4 -11 -6 -25 -5 -13 2 -22 0 -20 -5 3 -4 2 -9 -2 -12
-5 -2 -2 -2 5 -1 6 2 12 -1 12 -6 0 -6 -6 -10 -12 -10 -7 0 -1 -8 15 -18 15
-10 24 -22 20 -26 -4 -4 1 -4 12 -1 20 7 20 6 1 -9 -11 -9 -15 -16 -9 -16 7 0
15 5 18 10 4 6 11 8 16 4 6 -3 3 -12 -8 -19 -10 -7 -22 -11 -27 -8 -5 4 -6 1
-2 -5 4 -6 14 -8 23 -5 11 4 14 3 9 -5 -4 -7 -2 -12 4 -12 7 0 9 7 6 17 -5 13
0 11 18 -6 31 -29 32 -34 7 -26 -22 7 -37 -10 -20 -21 8 -4 9 -3 5 4 -4 7 -2
12 3 12 6 0 11 -6 11 -14 0 -7 7 -20 17 -27 15 -13 15 -12 5 7 -9 17 -9 24 2
33 10 8 16 9 21 1 3 -5 20 -17 37 -26 l31 -16 -22 31 c-24 33 -37 41 -28 16 4
-8 -14 4 -38 27 -32 30 -41 45 -34 54 7 8 7 14 -1 19 -6 3 -7 11 -4 17 4 6 2
8 -4 4 -5 -3 -13 0 -15 6 -3 7 -6 3 -6 -9 -1 -13 -5 -23 -10 -23 -10 0 -9 19
2 37 4 6 2 13 -5 15 -7 3 -5 7 6 11 10 4 15 3 11 -3 -7 -11 22 -26 32 -16 10
10 -17 35 -38 33 -10 -1 -19 -4 -19 -8z m-3 -39 c-1 -11 -5 -19 -10 -17 -5 1
-8 6 -8 10 1 4 1 14 1 23 0 8 4 13 9 9 6 -3 9 -14 8 -25z m47 -41 c-3 -5 -10
-7 -15 -3 -5 3 -7 10 -3 15 3 5 10 7 15 3 5 -3 7 -10 3 -15z m26 -54 c13 -14
21 -25 18 -25 -2 0 -15 11 -28 25 -13 14 -21 25 -18 25 2 0 15 -11 28 -25z"/>
<path d="M2310 598 c0 -4 4 -8 9 -8 6 0 12 4 15 8 3 5 -1 9 -9 9 -8 0 -15 -4
-15 -9z"/>
<path d="M2190 565 c-10 -12 -10 -15 2 -15 8 0 15 7 15 15 0 8 -1 15 -2 15 -2
0 -8 -7 -15 -15z"/>
<path d="M2280 566 c0 -2 7 -7 16 -10 8 -3 12 -2 9 4 -6 10 -25 14 -25 6z"/>
<path d="M216 547 c3 -10 9 -15 12 -12 3 3 0 11 -7 18 -10 9 -11 8 -5 -6z"/>
<path d="M2255 550 c-3 -5 -1 -10 4 -10 6 0 11 5 11 10 0 6 -2 10 -4 10 -3 0
-8 -4 -11 -10z"/>
<path d="M276 525 c4 -8 8 -15 10 -15 2 0 4 7 4 15 0 8 -4 15 -10 15 -5 0 -7
-7 -4 -15z"/>
<path d="M401 531 c-8 -6 -9 -11 -3 -15 6 -3 14 -1 17 5 9 14 2 20 -14 10z"/>
<path d="M2180 521 c-14 -26 -13 -30 7 -27 9 2 17 12 18 24 2 27 -11 28 -25 3z"/>
<path d="M250 521 c0 -6 4 -13 10 -16 6 -3 7 1 4 9 -7 18 -14 21 -14 7z"/>
<path d="M2275 520 c3 -5 8 -10 11 -10 2 0 4 5 4 10 0 6 -5 10 -11 10 -5 0 -7
-4 -4 -10z"/>
<path d="M2275 490 c-3 -5 -3 -10 2 -10 4 0 1 -5 -7 -11 -12 -8 -12 -10 -1 -7
8 2 15 12 17 21 3 19 -2 22 -11 7z"/>
<path d="M2162 471 c-11 -7 -11 -9 0 -14 9 -3 15 1 15 9 0 8 -1 14 -1 14 -1 0
-7 -4 -14 -9z"/>
<path d="M316 456 c6 -15 4 -17 -6 -11 -9 6 -11 4 -5 -4 5 -9 10 -10 18 -2 8
8 7 14 -2 24 -10 10 -11 8 -5 -7z"/>
<path d="M2211 447 c2 -1 13 -9 24 -17 19 -14 19 -14 6 3 -7 9 -18 17 -24 17
-6 0 -8 -1 -6 -3z"/>
<path d="M354 412 c4 -7 3 -19 -3 -26 -8 -9 -7 -13 4 -13 8 0 12 4 9 8 -2 4 1
9 7 11 7 2 4 10 -7 18 -12 10 -15 11 -10 2z"/>
<path d="M2172 384 c5 -10 -27 -45 -36 -38 -3 2 -4 1 -1 -3 8 -10 45 -11 51
-1 3 5 2 8 -3 7 -21 -4 -25 2 -8 14 14 11 15 16 5 22 -7 5 -11 4 -8 -1z"/>
<path d="M373 345 c0 -8 4 -12 9 -9 5 3 6 10 3 15 -9 13 -12 11 -12 -6z"/>
<path d="M415 340 c-3 -5 -1 -10 4 -10 6 0 11 5 11 10 0 6 -2 10 -4 10 -3 0
-8 -4 -11 -10z"/>
<path d="M445 320 c-3 -6 1 -7 9 -4 18 7 21 14 7 14 -6 0 -13 -4 -16 -10z"/>
<path d="M500 291 c0 -6 4 -13 10 -16 6 -3 7 1 4 9 -7 18 -14 21 -14 7z"/>
<path d="M586 237 c3 -10 9 -15 12 -12 3 3 0 11 -7 18 -10 9 -11 8 -5 -6z"/>
<path d="M634 229 c-4 -8 -3 -10 4 -5 6 4 21 -3 33 -15 12 -12 20 -16 17 -9
-2 7 -14 20 -25 27 -16 11 -23 11 -29 2z"/>
<path d="M2015 220 c3 -5 8 -10 11 -10 2 0 4 5 4 10 0 6 -5 10 -11 10 -5 0 -7
-4 -4 -10z"/>
<path d="M1955 209 c-4 -6 -5 -12 -2 -15 2 -3 7 2 10 11 7 17 1 20 -8 4z"/>
<path d="M653 195 c0 -8 4 -12 9 -9 5 3 6 10 3 15 -9 13 -12 11 -12 -6z"/>
<path d="M1873 191 c0 -11 5 -18 9 -15 4 3 5 11 1 19 -7 21 -12 19 -10 -4z"/>
<path d="M830 136 c7 -7 13 -7 20 0 6 6 3 10 -10 10 -13 0 -16 -4 -10 -10z"/>
<path d="M878 143 c7 -3 16 -2 19 1 4 3 -2 6 -13 5 -11 0 -14 -3 -6 -6z"/>
<path d="M918 143 c7 -3 16 -2 19 1 4 3 -2 6 -13 5 -11 0 -14 -3 -6 -6z"/>
<path d="M973 130 c-1 -11 2 -22 6 -24 4 -3 7 4 6 14 -2 27 -10 33 -12 10z"/>
<path d="M1310 131 c0 -6 4 -13 10 -16 6 -3 7 1 4 9 -7 18 -14 21 -14 7z"/>
<path d="M1617 129 c7 -7 15 -10 18 -7 3 3 -2 9 -12 12 -14 6 -15 5 -6 -5z"/>
<path d="M1161 121 c-10 -7 -7 -9 12 -8 14 1 23 5 20 10 -6 9 -15 9 -32 -2z"/>
<path d="M1290 121 c0 -6 4 -13 10 -16 6 -3 7 1 4 9 -7 18 -14 21 -14 7z"/>
<path d="M1396 122 c-3 -5 1 -9 9 -9 8 0 12 4 9 9 -3 4 -7 8 -9 8 -2 0 -6 -4
-9 -8z"/>
<path d="M1690 120 c0 -5 5 -10 11 -10 5 0 7 5 4 10 -3 6 -8 10 -11 10 -2 0
-4 -4 -4 -10z"/>
<path d="M1350 116 c0 -2 8 -10 18 -17 15 -13 16 -12 3 4 -13 16 -21 21 -21
13z"/>
</g>
</svg>
